#!OML:ASF X:\für Bonn\!DataBase\2005_08_10_Bjorn_Final\c3d\bjorn.ASF
:FULLY-SPECIFIED
:DEGREES
216
root 0.751163 4.61312 9.77244 -2402.85 -17.3416 183.01
lowerback 45.7066 4.54833 5.8907
upperback 24.9693 -3.17377 2.25091
thorax 7.34593 -6.2697 -0.231025
lowerneck -9.33209 -1.07397 -6.75274
upperneck 23.283 -0.327184 -6.12695
head 8.86664 -1.90801 -1.06367
rclavicle -3.52843e-014 -2.50469e-014
rhumerus -416.59 -47.8268 308.456
rradius 15.1774
rwrist -5.75773
rhand -12.9451 -6.46699
rfingers 7.12502
rthumb 13.1461 -36.0326
lclavicle -3.52843e-014 -2.50469e-014
lhumerus -23.4411 9.70101 77.6299
lradius 12.3124
lwrist -4.38276
lhand -22.3269 12.2725
lfingers 7.12502
lthumb 4.09313 762.213
rfemur -246.67 -156.619 176.741
rtibia 111.318
rfoot 13.8386 13.4925
rtoes -13.5936
lfemur 112.005 145.71 181.022
ltibia 141.872
lfoot -13.1473 -32.1488
ltoes -20.9416
217
root 0.74458 4.60124 9.77769 -2402.9 -17.3122 183.009
lowerback 45.8017 4.47342 5.83925
upperback 24.8049 -3.19652 2.13082
thorax 7.11576 -6.24534 -0.296397
lowerneck -9.43007 -0.929384 -6.77137
upperneck 23.4146 -0.101384 -6.21166
head 8.93145 -1.82865 -1.07172
rclavicle 3.17062e-014 -2.42517e-014
rhumerus -417.572 -48.2275 309.719
rradius 14.9267
rwrist -4.65584
rhand -12.8395 -6.39802
rfingers 7.12502
rthumb 13.2479 -35.957
lclavicle 3.17062e-014 -2.42517e-014
lhumerus -23.8026 6.81416 78.3655
lradius 12.5201
lwrist -1.69644
lhand -22.4493 12.6071
lfingers 7.12502
lthumb 3.97494 762.55
rfemur -246.495 -156.517 176.873
rtibia 111.287
rfoot 14.5912 12.715
rtoes -13.6291
lfemur 111.908 145.755 180.937
ltibia 141.872
lfoot -12.5088 -32.1885
ltoes -20.318
218
root 0.737393 4.58808 9.78184 -2402.93 -17.2846 182.983
lowerback 45.8851 4.42108 5.75546
upperback 24.646 -3.20802 2.02487
thorax 6.89533 -6.2218 -0.335268
lowerneck -9.48036 -0.790276 -6.73301
upperneck 23.5163 0.11134 -6.35716
head 8.97696 -1.75566 -1.11003
rclavicle -3.79679e-014 3.69739e-014
rhumerus -418.588 -48.6417 311.085
rradius 14.6323
rwrist -3.51351
rhand -12.7329 -6.26657
rfingers 7.12502
rthumb 13.3507 -35.8189
lclavicle -3.79679e-014 3.69739e-014
lhumerus -24.1919 4.08007 79.0916
lradius 12.6876
lwrist 0.822336
lhand -22.557 12.9286
lfingers 7.12502
lthumb 3.87086 762.873
rfemur -246.368 -156.368 176.964
rtibia 111.327
rfoot 15.3892 12.1181
rtoes -13.4124
lfemur 111.803 145.802 180.829
ltibia 141.888
lfoot -11.9498 -32.1814
ltoes -19.7779
219
root 0.73028 4.57375 9.78455 -2402.95 -17.2375 182.944
lowerback 45.9873 4.37198 5.67119
upperback 24.4811 -3.21848 1.91408
thorax 6.66418 -6.19867 -0.377889
lowerneck -9.53202 -0.648104 -6.66436
upperneck 23.6141 0.322707 -6.49194
head 9.02142 -1.67884 -1.14962
rclavicle -8.44835e-015 -1.98785e-015
rhumerus -419.643 -49.0357 312.477
rradius 14.3583
rwrist -2.35994
rhand -12.6262 -6.16395
rfingers 7.12502
rthumb 13.4535 -35.7095
lclavicle -8.44835e-015 -1.98785e-015
lhumerus -24.6706 1.26821 79.8739
lradius 12.9018
lwrist 3.42283
lhand -22.6714 13.2696
lfingers 7.12502
lthumb 3.76044 763.216
rfemur -246.246 -156.253 177.069
rtibia 111.328
rfoot 16.345 11.6779
rtoes -12.5197
lfemur 111.672 145.851 180.733
ltibia 141.916
lfoot -11.3625 -32.1807
ltoes -19.19
220
root 0.723447 4.55892 9.78792 -2402.96 -17.178 182.897
lowerback 46.215 4.32673 5.60392
upperback 24.222 -3.23638 1.81471
thorax 6.48841 -6.19294 -0.403123
lowerneck -9.6938 -0.519642 -6.60198
upperneck 23.687 0.537599 -6.62986
head 9.07883 -1.59838 -1.18909
rclavicle 1.90833e-014 -2.06736e-014
rhumerus -420.332 -49.1683 313.355
rradius 14.2055
rwrist -1.64473
rhand -12.5208 -6.05458
rfingers 7.12502
rthumb 13.555 -35.5933
lclavicle 1.90833e-014 -2.06736e-014
lhumerus -25.1533 -1.60417 80.7302
lradius 13.194
lwrist 6.14559
lhand -22.7938 13.6514
lfingers 7.12502
lthumb 3.64219 763.6
rfemur -246.162 -156.184 177.189
rtibia 111.28
rfoot 17.4407 11.468
rtoes -11.3379
lfemur 111.512 145.958 180.612
ltibia 141.945
lfoot -10.8282 -32.0826
ltoes -18.7407
221
root 0.715871 4.54343 9.79068 -2402.99 -17.115 182.845
lowerback 46.3387 4.2914 5.52883
upperback 24.1018 -3.26455 1.72816
thorax 6.30634 -6.19494 -0.425903
lowerneck -9.88505 -0.387948 -6.51632
upperneck 23.782 0.760489 -6.78719
head 9.15028 -1.51655 -1.23901
rclavicle -3.10104e-014 1.43125e-014
rhumerus -421.018 -49.3706 314.319
rradius 14.0051
rwrist -0.854861
rhand -12.4199 -6.01427
rfingers 7.12502
rthumb 13.6523 -35.5465
lclavicle -3.10104e-014 1.43125e-014
lhumerus -25.7181 -4.39403 81.5923
lradius 13.5313
lwrist 8.7499
lhand -22.8514 14.0825
lfingers 7.12502
lthumb 3.58662 764.032
rfemur -246.081 -156.118 177.28
rtibia 111.215
rfoot 18.7056 11.426
rtoes -9.12576
lfemur 111.381 146.045 180.51
ltibia 141.979
lfoot -10.2177 -32.0145
ltoes -18.219
222
root 0.707734 4.52708 9.79404 -2403.01 -17.0512 182.773
lowerback 46.4682 4.26954 5.45253
upperback 24.0253 -3.3087 1.64789
thorax 6.17684 -6.21815 -0.442991
lowerneck -10.1611 -0.259163 -6.43287
upperneck 23.844 0.994008 -6.92802
head 9.22702 -1.42457 -1.28111
rclavicle -2.68359e-015 -1.47101e-014
rhumerus -421.746 -49.7173 315.431
rradius 13.7699
rwrist 0.111708
rhand -12.2846 -5.84748
rfingers 7.12502
rthumb 13.7827 -35.3709
lclavicle -2.68359e-015 -1.47101e-014
lhumerus -26.3298 -7.24292 82.5188
lradius 13.9735
lwrist 11.4393
lhand -22.9307 14.4754
lfingers 7.12502
lthumb 3.51006 764.426
rfemur -246.022 -156.058 177.358
rtibia 111.142
rfoot 20.2173 11.377
rtoes -5.63212
lfemur 111.263 146.176 180.383
ltibia 142.008
lfoot -9.67162 -31.8652
ltoes -17.9139
223
root 0.699792 4.50916 9.79545 -2403.05 -16.9634 182.702
lowerback 46.612 4.25055 5.35955
upperback 23.9365 -3.35654 1.58929
thorax 6.03091 -6.24848 -0.425075
lowerneck -10.4227 -0.117549 -6.36271
upperneck 23.9068 1.24734 -7.09063
head 9.30268 -1.32891 -1.32622
rclavicle -2.0276e-014 -1.70955e-014
rhumerus -422.282 -49.9179 316.339
rradius 13.5467
rwrist 0.967351
rhand -12.2063 -5.68754
rfingers 7.12502
rthumb 13.8582 -35.2058
lclavicle -2.0276e-014 -1.70955e-014
lhumerus -27.0865 -10.0118 83.5143
lradius 14.5086
lwrist 14.1695
lhand -23.0492 14.9327
lfingers 7.12502
lthumb 3.39555 764.885
rfemur -245.982 -156.005 177.447
rtibia 111.076
rfoot 21.6737 11.3387
rtoes -2.3218
lfemur 111.149 146.184 180.31
ltibia 142.051
lfoot -9.19679 -31.7455
ltoes -17.7894
224
root 0.690082 4.48956 9.79604 -2403.08 -16.8742 182.593
lowerback 47.7634 4.16192 5.33828
upperback 23.0354 -3.39865 1.47201
thorax 5.69181 -6.28204 -0.389658
lowerneck -10.5663 0.0248629 -6.2928
upperneck 23.9061 1.48508 -7.26436
head 9.33428 -1.23762 -1.37407
rclavicle -2.80286e-014 0
rhumerus -422.726 -50.0398 317.15
rradius 13.3276
rwrist 1.69301
rhand -12.1022 -5.53535
rfingers 7.12502
rthumb 13.9585 -35.0468
lclavicle -2.80286e-014 0
lhumerus -28.0009 -12.7092 84.5655
lradius 15.1672
lwrist 16.922
lhand -23.2448 15.3849
lfingers 7.12502
lthumb 3.2067 765.341
rfemur -245.96 -155.949 177.5
rtibia 111.014
rfoot 22.8237 11.3387
rtoes -0.29587
lfemur 111.034 146.211 180.184
ltibia 142.106
lfoot -8.66949 -31.5435
ltoes -17.5252
225
root 0.680123 4.46775 9.79419 -2403.13 -16.794 182.481
lowerback 47.9535 4.15566 5.22569
upperback 22.9417 -3.45462 1.41893
thorax 5.54934 -6.3247 -0.356186
lowerneck -10.5395 0.177294 -6.19759
upperneck 23.7756 1.70878 -7.43863
head 9.28789 -1.13929 -1.42294
rclavicle 2.54444e-014 -1.39149e-014
rhumerus -423.037 -50.1201 317.804
rradius 13.141
rwrist 2.38466
rhand -12.0194 -5.41213
rfingers 7.12502
rthumb 14.0383 -34.918
lclavicle 2.54444e-014 -1.39149e-014
lhumerus -28.9993 -15.3752 85.6753
lradius 15.9155
lwrist 19.6943
lhand -23.4682 15.8617
lfingers 7.12502
lthumb 2.99099 765.82
rfemur -245.943 -155.873 177.529
rtibia 110.967
rfoot 23.8225 11.2709
rtoes 1.29587
lfemur 110.905 146.244 180.056
ltibia 142.178
lfoot -8.15856 -31.3313
ltoes -17.2668
226
root 0.670049 4.44341 9.79116 -2403.19 -16.6793 182.361
lowerback 48.184 4.15024 5.12768
upperback 22.829 -3.50339 1.37161
thorax 5.38089 -6.3639 -0.321512
lowerneck -10.4229 0.336986 -6.09652
upperneck 23.6391 1.92317 -7.59985
head 9.22252 -1.04271 -1.46877
rclavicle -3.22031e-014 4.77083e-015
rhumerus -423.218 -50.1081 318.301
rradius 12.9777
rwrist 2.89252
rhand -11.945 -5.26552
rfingers 7.12502
rthumb 14.11 -34.7664
lclavicle -3.22031e-014 4.77083e-015
lhumerus -30.0973 -17.7694 86.7653
lradius 16.7261
lwrist 22.2317
lhand -23.6735 16.3607
lfingers 7.12502
lthumb 2.79268 766.322
rfemur -245.958 -155.815 177.593
rtibia 110.93
rfoot 24.558 11.1864
rtoes 1.86395
lfemur 110.8 146.164 179.977
ltibia 142.254
lfoot -7.68513 -31.1301
ltoes -16.9689
227
root 0.659256 4.41816 9.78795 -2403.27 -16.5673 182.247
lowerback 48.4016 4.14479 5.07566
upperback 22.7641 -3.55749 1.31817
thorax 5.27129 -6.40902 -0.320807
lowerneck -10.2751 0.478632 -5.9132
upperneck 23.4372 2.09603 -7.7465
head 9.12796 -0.947666 -1.52545
rclavicle 1.19271e-014 -2.22639e-014
rhumerus -423.096 -50.0065 318.344
rradius 12.8971
rwrist 3.07549
rhand -11.8641 -5.19534
rfingers 7.12502
rthumb 14.188 -34.6908
lclavicle 1.19271e-014 -2.22639e-014
lhumerus -31.2353 -20.192 87.8627
lradius 17.6387
lwrist 24.7748
lhand -23.9125 16.8872
lfingers 7.12502
lthumb 2.56188 766.852
rfemur -245.957 -155.743 177.629
rtibia 110.902
rfoot 25.0168 10.9182
rtoes 1.71876
lfemur 110.691 146.111 179.864
ltibia 142.344
lfoot -7.35077 -30.8483
ltoes -16.9445
228
root 0.649202 4.39064 9.78174 -2403.38 -16.4515 182.131
lowerback 48.6744 4.13918 5.03883
upperback 22.688 -3.60887 1.2569
thorax 5.14197 -6.45343 -0.332685
lowerneck -10.0409 0.628103 -5.65381
upperneck 23.1824 2.25975 -7.91456
head 8.99964 -0.84676 -1.60146
rclavicle -1.36167e-014 -7.95139e-016
rhumerus -422.674 -49.6934 317.909
rradius 12.8814
rwrist 2.91409
rhand -11.8223 -5.16092
rfingers 7.12502
rthumb 14.2282 -34.6536
lclavicle -1.36167e-014 -7.95139e-016
lhumerus -32.4171 -22.3955 88.9166
lradius 18.546
lwrist 27.0778
lhand -24.1348 17.417
lfingers 7.12502
lthumb 2.34716 767.384
rfemur -245.942 -155.668 177.66
rtibia 110.895
rfoot 25.1698 10.5714
rtoes 0.599961
lfemur 110.616 145.912 179.809
ltibia 142.464
lfoot -7.21446 -30.5822
ltoes -17.076
